<svg xmlns="http://www.w3.org/2000/svg" width="82" height="66.782" viewBox="0 0 82 66.782">
  <g id="Professional_templates" data-name="Professional templates" transform="translate(0 -3.8)">
    <path id="Контур_1222" data-name="Контур 1222" d="M78.811,17.8a13.2,13.2,0,1,0-26.4,0v1.576L50.837,17.8H6.513A5.717,5.717,0,0,0,.8,23.512v39.2a5.717,5.717,0,0,0,5.713,5.713h53.78a5.717,5.717,0,0,0,5.713-5.713V32.771l-1.97-1.97c.591,0,.985.2,1.576.2A13.2,13.2,0,0,0,78.811,17.8Z" transform="translate(0.776 0.776)" fill="#fff"/>
    <path id="Контур_1223" data-name="Контур 1223" d="M60.872,64.083H7.289A7.272,7.272,0,0,1,0,56.794V17.789A7.272,7.272,0,0,1,7.289,10.5H48.264a1.554,1.554,0,0,1,1.576,1.576,1.4,1.4,0,0,1-1.576,1.379H7.289a4.372,4.372,0,0,0-4.334,4.334v39.2a4.372,4.372,0,0,0,4.334,4.334h53.78A4.372,4.372,0,0,0,65.4,56.991V30a1.554,1.554,0,0,1,1.576-1.576A1.45,1.45,0,0,1,68.555,30V56.991A7.725,7.725,0,0,1,60.872,64.083Z" transform="translate(0 6.499)"/>
    <path id="Контур_1224" data-name="Контур 1224" d="M56.883,45.649H4.876A1.554,1.554,0,0,1,3.3,44.073v-19.9A1.554,1.554,0,0,1,4.876,22.6H56.883a1.554,1.554,0,0,1,1.576,1.576v19.9A1.7,1.7,0,0,1,56.883,45.649ZM6.255,42.694H55.307V25.752H6.255Z" transform="translate(3.201 18.235)"/>
    <path id="Контур_1225" data-name="Контур 1225" d="M56.883,27H4.876A1.554,1.554,0,0,1,3.3,25.429V15.776A1.554,1.554,0,0,1,4.876,14.2H46.639a1.554,1.554,0,0,1,1.576,1.576,1.45,1.45,0,0,1-1.576,1.576H6.255v6.7H55.307a1.69,1.69,0,0,1,1.379-1.182,1.554,1.554,0,0,1,1.576,1.576v1.182C58.459,26.414,57.671,27,56.883,27Z" transform="translate(3.201 10.088)"/>
    <path id="Контур_1226" data-name="Контур 1226" d="M36.732,32.955H7.576A1.554,1.554,0,0,1,6,31.379,1.4,1.4,0,0,1,7.576,30H36.732a1.554,1.554,0,0,1,1.576,1.576A1.4,1.4,0,0,1,36.732,32.955Z" transform="translate(5.82 25.413)" fill="#35c4ff"/>
    <path id="Контур_1227" data-name="Контур 1227" d="M40.975,33.35A14.882,14.882,0,0,1,26.2,18.575,14.882,14.882,0,0,1,40.975,3.8a14.619,14.619,0,0,1,9.653,3.546,1.766,1.766,0,0,1,.2,2.167,1.766,1.766,0,0,1-2.167.2,12.447,12.447,0,0,0-7.683-2.955,11.82,11.82,0,1,0,11.82,11.82,8.081,8.081,0,0,0-.2-2.167,1.507,1.507,0,0,1,2.955-.591,12.115,12.115,0,0,1,.2,2.758A14.882,14.882,0,0,1,40.975,33.35Z" transform="translate(25.413 0)"/>
    <path id="Контур_1228" data-name="Контур 1228" d="M37.116,22.766a1.5,1.5,0,0,1-.985-.394l-5.713-5.713a1.532,1.532,0,0,1,2.167-2.167l4.728,4.728,13-13a1.532,1.532,0,0,1,2.167,2.167L38.3,22.569C37.9,22.569,37.51,22.766,37.116,22.766Z" transform="translate(29.075 1.916)"/>
  </g>
</svg>
