<svg xmlns="http://www.w3.org/2000/svg" width="80" height="69.17" viewBox="0 0 80 69.17">
  <g id="Webinars_and_Videotutorials" data-name="Webinars and Videotutorials" transform="translate(0 -2.8)">
    <path id="Контур_1209" data-name="Контур 1209" d="M77.792,57.13H74.314V9.6H5.53V56.937H1.086a.416.416,0,0,0-.386.386c0,3.671,2.125,6.762,4.637,6.762H73.155c2.512,0,4.637-3.091,4.637-6.762C78.178,57.324,77.985,57.13,77.792,57.13Z" transform="translate(0.652 6.338)" fill="#fff"/>
    <g id="Сгруппировать_427" data-name="Сгруппировать 427" transform="translate(61.828 14.393)">
      <path id="Контур_1210" data-name="Контур 1210" d="M45.138,54.592a1.524,1.524,0,0,1-1.546-1.546V11.891H33.546A1.524,1.524,0,0,1,32,10.346,1.422,1.422,0,0,1,33.546,8.8h11.4a1.524,1.524,0,0,1,1.546,1.546V53.239A1.321,1.321,0,0,1,45.138,54.592Z" transform="translate(-32 -8.8)"/>
    </g>
    <g id="Сгруппировать_428" data-name="Сгруппировать 428" transform="translate(3.671 14.393)">
      <path id="Контур_1211" data-name="Контур 1211" d="M3.446,55.171A1.524,1.524,0,0,1,1.9,53.625V10.346A1.524,1.524,0,0,1,3.446,8.8h26.47a1.524,1.524,0,0,1,1.546,1.546,1.422,1.422,0,0,1-1.546,1.546H4.991V53.819A1.378,1.378,0,0,1,3.446,55.171Z" transform="translate(-1.9 -8.8)"/>
    </g>
    <g id="Сгруппировать_429" data-name="Сгруппировать 429" transform="translate(0 61.923)">
      <path id="Контур_1212" data-name="Контур 1212" d="M74,43.447H6.183C2.7,43.447,0,39.776,0,35.332A1.906,1.906,0,0,1,1.739,33.4H26.47a1.453,1.453,0,0,1,1.352.966c.386.773.966,1.352,1.352,1.352h21.64c.58,0,.966-.58,1.352-1.352A1.453,1.453,0,0,1,53.52,33.4H78.251a1.784,1.784,0,0,1,1.739,1.932C80.183,39.776,77.478,43.447,74,43.447ZM2.9,36.3c.386,2.319,1.739,4.251,3.285,4.251H74c1.546,0,2.9-1.932,3.285-4.251h-22.8a4.143,4.143,0,0,1-3.671,2.125H29.175A4.638,4.638,0,0,1,25.5,36.3Zm75.546,0Z" transform="translate(0 -33.4)"/>
    </g>
    <g id="Сгруппировать_430" data-name="Сгруппировать 430" transform="translate(9.274 39.511)">
      <path id="Контур_1213" data-name="Контур 1213" d="M6.346,35.9A1.524,1.524,0,0,1,4.8,34.359,12.534,12.534,0,0,1,17.359,21.8a12.383,12.383,0,0,1,11.013,6.569,1.426,1.426,0,0,1-2.512,1.352,9.83,9.83,0,0,0-8.5-5.024A9.567,9.567,0,0,0,7.7,34.359,1.286,1.286,0,0,1,6.346,35.9Z" transform="translate(-4.8 -21.8)"/>
    </g>
    <g id="Сгруппировать_431" data-name="Сгруппировать 431" transform="translate(15.071 28.691)">
      <path id="Контур_1214" data-name="Контур 1214" d="M14.756,30.111a6.956,6.956,0,1,1,6.956-6.956A6.927,6.927,0,0,1,14.756,30.111Zm0-11.013a4.057,4.057,0,1,0,0,8.115,3.962,3.962,0,0,0,4.057-4.057A4.081,4.081,0,0,0,14.756,19.1Z" transform="translate(-7.8 -16.2)"/>
    </g>
    <g id="Сгруппировать_432" data-name="Сгруппировать 432" transform="translate(46.951 39.511)">
      <path id="Контур_1215" data-name="Контур 1215" d="M46.713,35.9a1.524,1.524,0,0,1-1.546-1.546A9.689,9.689,0,0,0,35.506,24.7,9.83,9.83,0,0,0,27,29.722a1.426,1.426,0,0,1-2.512-1.352A12.383,12.383,0,0,1,35.506,21.8,12.534,12.534,0,0,1,48.065,34.359,1.378,1.378,0,0,1,46.713,35.9Z" transform="translate(-24.3 -21.8)"/>
    </g>
    <g id="Сгруппировать_433" data-name="Сгруппировать 433" transform="translate(51.201 28.691)">
      <path id="Контур_1216" data-name="Контур 1216" d="M33.456,30.111a6.956,6.956,0,1,1,6.956-6.956A6.927,6.927,0,0,1,33.456,30.111Zm0-11.013a4.057,4.057,0,1,0,4.057,4.057A3.962,3.962,0,0,0,33.456,19.1Z" transform="translate(-26.5 -16.2)"/>
    </g>
    <g id="Сгруппировать_434" data-name="Сгруппировать 434" transform="translate(27.243 47.239)">
      <path id="Контур_1217" data-name="Контур 1217" d="M38.058,39.9a1.524,1.524,0,0,1-1.546-1.546,9.661,9.661,0,1,0-19.321,0A1.524,1.524,0,0,1,15.646,39.9,1.422,1.422,0,0,1,14.1,38.359a12.559,12.559,0,0,1,25.118,0C39.6,39.132,38.831,39.9,38.058,39.9Z" transform="translate(-14.1 -25.8)"/>
    </g>
    <g id="Сгруппировать_435" data-name="Сгруппировать 435" transform="translate(33.233 36.226)">
      <path id="Контур_1218" data-name="Контур 1218" d="M24.156,34.011a6.956,6.956,0,1,1,6.956-6.956A7.052,7.052,0,0,1,24.156,34.011Zm0-11.013a4.057,4.057,0,1,0,4.057,4.057A4.081,4.081,0,0,0,24.156,23Z" transform="translate(-17.2 -20.1)"/>
    </g>
    <g id="Сгруппировать_436" data-name="Сгруппировать 436" transform="translate(34.778 2.8)">
      <circle id="Эллипс_154" data-name="Эллипс 154" cx="11.593" cy="11.593" r="11.593" transform="translate(1.546 1.546)" fill="#fff"/>
      <path id="Контур_1219" data-name="Контур 1219" d="M31.138,29.077A13.138,13.138,0,1,1,44.277,15.938,13.152,13.152,0,0,1,31.138,29.077Zm0-23.186A10.1,10.1,0,0,0,21.091,15.938,10.23,10.23,0,0,0,31.138,25.986,10.1,10.1,0,0,0,41.186,15.938,9.978,9.978,0,0,0,31.138,5.891Z" transform="translate(-18 -2.8)"/>
    </g>
    <g id="Сгруппировать_437" data-name="Сгруппировать 437" transform="translate(42.893 9.514)">
      <path id="Контур_1220" data-name="Контур 1220" d="M25.291,19.462a3.64,3.64,0,0,1-1.546-.386,3.084,3.084,0,0,1-1.546-2.7V9.415a3.084,3.084,0,0,1,1.546-2.7,2.965,2.965,0,0,1,3.091,0l5.99,3.478a3.14,3.14,0,0,1,0,5.41l-5.99,3.478A5.973,5.973,0,0,1,25.291,19.462Zm0-10.434h0a.189.189,0,0,0-.193.193v6.956c0,.193,0,.193.193.193h.193l5.99-3.478.193-.193c0-.193,0-.193-.193-.193h0L25.291,9.028Z" transform="translate(-22.2 -6.275)"/>
    </g>
    <g id="Сгруппировать_438" data-name="Сгруппировать 438" transform="translate(9.854 19.61)">
      <path id="Контур_1221" data-name="Контур 1221" d="M26.933,14.591H6.646A1.524,1.524,0,0,1,5.1,13.046,1.422,1.422,0,0,1,6.646,11.5H26.933a1.546,1.546,0,1,1,0,3.091Z" transform="translate(-5.1 -11.5)" fill="#35c4ff"/>
    </g>
  </g>
</svg>
