<svg xmlns="http://www.w3.org/2000/svg" width="78" height="70.642" viewBox="0 0 78 70.642">
  <g id="Slide_Library" data-name="Slide Library" transform="translate(0.036 0)">
    <g id="Customized_programing" data-name="Customized programing" transform="translate(-0.036 0)">
      <path id="Контур_1202" data-name="Контур 1202" d="M72.661,2.7H4.279A3.577,3.577,0,0,0,.7,6.279V47.158a3.577,3.577,0,0,0,3.579,3.579H30.841v4.709a17.633,17.633,0,0,1-8.477,15.07H54.388a17.633,17.633,0,0,1-8.477-15.07h0V50.737H72.473a3.577,3.577,0,0,0,3.579-3.579V6.279A3.419,3.419,0,0,0,72.661,2.7Z" transform="translate(0.619 -1.381)" fill="#fff"/>
      <g id="Сгруппировать_421" data-name="Сгруппировать 421" transform="translate(21.781 52.935)">
        <path id="Контур_1203" data-name="Контур 1203" d="M44.976,47.808H12.952a1.417,1.417,0,0,1-1.319-.942,1.186,1.186,0,0,1,.565-1.507,15.941,15.941,0,0,0,7.724-13.752A1.456,1.456,0,0,1,21.24,30.1h0a1.6,1.6,0,0,1,1.507,1.319A19.828,19.828,0,0,1,17.1,45.17H40.644a18.025,18.025,0,0,1-5.651-13.752,1.416,1.416,0,0,1,2.826.188,15.941,15.941,0,0,0,7.724,13.752,1.262,1.262,0,0,1,.565,1.507A1.055,1.055,0,0,1,44.976,47.808Z" transform="translate(-11.562 -30.1)"/>
      </g>
      <path id="Контур_1204" data-name="Контур 1204" d="M73.28,2H4.9A4.987,4.987,0,0,0,0,6.9V47.776a5.028,5.028,0,0,0,4.9,5.086H73.091a4.864,4.864,0,0,0,4.9-4.9V6.9A4.706,4.706,0,0,0,73.28,2ZM4.9,4.826H73.091A2.138,2.138,0,0,1,75.352,6.9V41.371H2.826V6.9A2.091,2.091,0,0,1,4.9,4.826ZM73.28,50.037H4.9a2.091,2.091,0,0,1-2.072-2.072V44.385H75.352v3.579A2.091,2.091,0,0,1,73.28,50.037Z" transform="translate(0 -2)"/>
      <g id="Сгруппировать_422" data-name="Сгруппировать 422" transform="translate(34.802 11.82)">
        <path id="Контур_1205" data-name="Контур 1205" d="M19.841,30.551h-.377a1.348,1.348,0,0,1-.942-1.7L24.551,9.264a1.371,1.371,0,1,1,2.637.754L21.16,29.609A1.417,1.417,0,0,1,19.841,30.551Z" transform="translate(-18.475 -8.275)"/>
      </g>
      <g id="Сгруппировать_423" data-name="Сгруппировать 423" transform="translate(47.884 13.599)">
        <path id="Контур_1206" data-name="Контур 1206" d="M26.89,27.644a1.439,1.439,0,0,1-.942-.377A1.688,1.688,0,0,1,25.76,25.2l5.84-6.782-5.84-6.782a1.471,1.471,0,0,1,2.261-1.884l6.593,7.724a1.711,1.711,0,0,1,0,1.884l-6.593,7.535A1.362,1.362,0,0,1,26.89,27.644Z" transform="translate(-25.419 -9.219)"/>
      </g>
      <g id="Сгруппировать_424" data-name="Сгруппировать 424" transform="translate(20.816 13.866)">
        <path id="Контур_1207" data-name="Контур 1207" d="M19.056,27.519a1.628,1.628,0,0,1-1.13-.565l-6.593-7.535a1.711,1.711,0,0,1,0-1.884l6.593-7.724A1.688,1.688,0,0,1,20,9.623a1.688,1.688,0,0,1,.188,2.072l-5.84,6.782,5.84,6.782A1.492,1.492,0,0,1,20,27.331C19.621,27.331,19.433,27.519,19.056,27.519Z" transform="translate(-11.05 -9.361)"/>
      </g>
      <g id="Сгруппировать_425" data-name="Сгруппировать 425" transform="translate(69.512 6.405)">
        <path id="Контур_1208" data-name="Контур 1208" d="M38.407,35.729A1.486,1.486,0,0,1,36.9,34.222V6.907A1.486,1.486,0,0,1,38.407,5.4a1.386,1.386,0,0,1,1.507,1.507v27.5A1.344,1.344,0,0,1,38.407,35.729Z" transform="translate(-36.9 -5.4)" fill="#35c4ff"/>
      </g>
    </g>
  </g>
</svg>
