<svg id="Slide_Library" data-name="Slide Library" xmlns="http://www.w3.org/2000/svg" width="80.122" height="65.597" viewBox="0 0 80.122 65.597">
  <path id="Контур_1170" data-name="Контур 1170" d="M74.812,4.5h-53.6a3.469,3.469,0,0,0-3.483,3.483v5.031H12.7A3.469,3.469,0,0,0,9.214,16.5v5.418H5.925A5.2,5.2,0,0,0,.7,27.14V62.164a5.329,5.329,0,0,0,5.225,5.225H55.848a5.2,5.2,0,0,0,5.225-5.225V53.456H65.91a3.469,3.469,0,0,0,3.483-3.483V44.942h5.418a3.469,3.469,0,0,0,3.483-3.483V7.983A3.741,3.741,0,0,0,74.812,4.5Z" transform="translate(0.655 -3.145)" fill="#fff"/>
  <path id="Контур_1171" data-name="Контур 1171" d="M67.331,46.951h-.968a1.548,1.548,0,1,1,0-3.1h.968a1.939,1.939,0,0,0,1.935-1.935V10.186A3.469,3.469,0,0,0,65.783,6.7H13.731A1.939,1.939,0,0,0,11.8,8.638V9.8a1.548,1.548,0,0,1-3.1,0V8.638A4.791,4.791,0,0,1,13.538,3.8H65.59a6.442,6.442,0,0,1,6.386,6.386V42.114A4.626,4.626,0,0,1,67.331,46.951Z" transform="translate(8.135 -3.8)"/>
  <path id="Контур_1172" data-name="Контур 1172" d="M62.738,51.351h-.774a1.548,1.548,0,1,1,0-3.1h.774a1.939,1.939,0,0,0,1.935-1.935V14.586A3.469,3.469,0,0,0,61.19,11.1H9.331A1.939,1.939,0,0,0,7.4,13.038V14.2a1.526,1.526,0,0,1-1.548,1.548A1.424,1.424,0,0,1,4.3,14.2V13.038A4.791,4.791,0,0,1,9.138,8.2H61.19a6.442,6.442,0,0,1,6.386,6.386V46.514A4.675,4.675,0,0,1,62.738,51.351Z" transform="translate(4.021 0.314)"/>
  <path id="Контур_1173" data-name="Контур 1173" d="M56.7,60.982H6.579A6.525,6.525,0,0,1,0,54.4V19.379A6.525,6.525,0,0,1,6.579,12.8H56.5a6.525,6.525,0,0,1,6.579,6.579V54.4A6.25,6.25,0,0,1,56.7,60.982ZM6.579,15.7A3.674,3.674,0,0,0,2.9,19.379V54.4A3.674,3.674,0,0,0,6.579,58.08H56.5A3.674,3.674,0,0,0,60.179,54.4V19.379A3.674,3.674,0,0,0,56.5,15.7H6.579Z" transform="translate(0 4.615)"/>
  <path id="Контур_1174" data-name="Контур 1174" d="M17.932,46.964a13.932,13.932,0,0,1,0-27.864,1.526,1.526,0,0,1,1.548,1.548v11.03H30.51a1.526,1.526,0,0,1,1.548,1.548A14.129,14.129,0,0,1,17.932,46.964ZM16.578,22A11.241,11.241,0,0,0,6.9,33.032a11.024,11.024,0,0,0,11.03,11.03,11.241,11.241,0,0,0,11.03-9.675H17.932a1.526,1.526,0,0,1-1.548-1.548V22Z" transform="translate(3.74 10.506)"/>
  <path id="Контур_1175" data-name="Контур 1175" d="M25.491,30.639H14.848A1.526,1.526,0,0,1,13.3,29.091V18.448A1.526,1.526,0,0,1,14.848,16.9a12.153,12.153,0,0,1,8.514,3.483A12.006,12.006,0,0,1,26.845,28.9,1.447,1.447,0,0,1,25.491,30.639Zm-9.288-2.9h7.74a9.585,9.585,0,0,0-2.516-5.031A8.368,8.368,0,0,0,16.4,20.19v7.547Z" transform="translate(12.436 8.449)"/>
  <path id="Контур_1176" data-name="Контур 1176" d="M36.554,35H21.848A1.526,1.526,0,0,1,20.3,33.448,1.424,1.424,0,0,1,21.848,31.9H36.554A1.526,1.526,0,0,1,38.1,33.448,1.424,1.424,0,0,1,36.554,35Z" transform="translate(18.981 22.474)"/>
  <path id="Контур_1177" data-name="Контур 1177" d="M34.778,31.6H23.748A1.526,1.526,0,0,1,22.2,30.048,1.424,1.424,0,0,1,23.748,28.5H34.971a1.526,1.526,0,0,1,1.548,1.548A1.58,1.58,0,0,1,34.778,31.6Z" transform="translate(20.758 19.295)"/>
  <path id="Контур_1178" data-name="Контур 1178" d="M33.282,28.1H25.348a1.548,1.548,0,0,1,0-3.1h7.934a1.526,1.526,0,0,1,1.548,1.548A1.424,1.424,0,0,1,33.282,28.1Z" transform="translate(22.254 16.023)"/>
  <path id="Контур_1179" data-name="Контур 1179" d="M37.4,19H20.948a1.548,1.548,0,0,1,0-3.1H37.4a1.526,1.526,0,0,1,1.548,1.548A1.424,1.424,0,0,1,37.4,19Z" transform="translate(18.14 7.514)" fill="#35c4ff"/>
</svg>
