<svg xmlns="http://www.w3.org/2000/svg" width="14.041" height="11.404" viewBox="0 0 14.041 11.404">
  <path id="Icon_awesome-twitter" data-name="Icon awesome-twitter" d="M12.6,6.223c.009.125.009.249.009.374a8.132,8.132,0,0,1-8.188,8.188A8.132,8.132,0,0,1,0,13.493a5.953,5.953,0,0,0,.695.036A5.763,5.763,0,0,0,4.268,12.3a2.883,2.883,0,0,1-2.691-2,3.629,3.629,0,0,0,.543.045,3.044,3.044,0,0,0,.757-.1A2.878,2.878,0,0,1,.57,7.426V7.39a2.9,2.9,0,0,0,1.3.365A2.882,2.882,0,0,1,.98,3.906,8.18,8.18,0,0,0,6.914,6.918a3.249,3.249,0,0,1-.071-.659,2.881,2.881,0,0,1,4.98-1.969,5.666,5.666,0,0,0,1.826-.695A2.87,2.87,0,0,1,12.384,5.18a5.769,5.769,0,0,0,1.657-.445A6.186,6.186,0,0,1,12.6,6.223Z" transform="translate(0 -3.381)"/>
</svg>
